<?xml version="1.0"?>
<svg xmlns="http://www.w3.org/2000/svg" height="512px" version="1.1" viewBox="0 0 512 512" width="512px">
<g id="surface1">
<path d="M 511.867188 247.648438 C 511.859375 247.4375 511.832031 247.230469 511.816406 247.015625 C 509.542969 181.140625 482.460938 119.558594 435.269531 73.253906 C 387.125 26.015625 323.460938 0 256 0 C 187.621094 0 123.332031 26.628906 74.980469 74.980469 C 26.628906 123.332031 0 187.621094 0 256 C 0 290.847656 28.351562 319.199219 63.199219 319.199219 C 98.050781 319.199219 126.398438 290.847656 126.398438 256 C 126.398438 157.960938 206.160156 78.199219 304.199219 78.199219 C 401.40625 78.199219 479.480469 154.28125 481.941406 251.402344 C 481.941406 251.449219 481.949219 251.496094 481.953125 251.542969 C 481.980469 253.027344 482 254.519531 482 256 C 482 380.617188 380.617188 482 256 482 C 247.714844 482 241 488.714844 241 497 C 241 505.285156 247.714844 512 256 512 C 324.378906 512 388.667969 485.371094 437.019531 437.019531 C 485.371094 388.667969 512 324.378906 512 256 C 512 253.21875 511.957031 250.410156 511.867188 247.648438 Z M 511.867188 247.648438 " style=" fill-rule:nonzero;fill-opacity:1;" stroke="#FFFFFF" fill="#FFFFFF"/>
</g>
</svg>
